<svg width="103" height="103" viewBox="0 0 103 103" fill="none" xmlns="http://www.w3.org/2000/svg">
<path d="M51.7483 0.344238C23.4428 0.344238 0.502136 23.2849 0.502136 51.5904V99.6336C0.502136 101.409 1.93009 102.837 3.70502 102.837H28.2605C32.9714 102.837 36.8015 99.0064 36.8015 94.2955V66.5372C36.8015 61.8263 32.9714 57.9962 28.2605 57.9962H10.1108V51.5904C10.1108 28.5963 28.7542 9.95289 51.7483 9.95289C74.7423 9.95289 93.3858 28.5963 93.3858 51.5904V57.9962H75.2361C70.5252 57.9962 66.6951 61.8263 66.6951 66.5372V94.2955C66.6951 99.0064 70.5252 102.837 75.2361 102.837H99.7915C101.566 102.837 102.994 101.409 102.994 99.6336V51.5904C102.994 23.2849 80.0538 0.344238 51.7483 0.344238Z" fill="#083C3E"/>
</svg>
