<svg width="739" height="571" viewBox="0 0 739 571" fill="none" xmlns="http://www.w3.org/2000/svg">
<path d="M311.475 511.104L358.778 486.146V465.195H272.511L311.475 511.104Z" fill="#231F20"/>
<path d="M244.873 571C284.311 571 316.282 539.029 316.282 499.591C316.282 460.154 284.311 428.183 244.873 428.183C205.436 428.183 173.465 460.154 173.465 499.591C173.465 539.029 205.436 571 244.873 571Z" fill="#414042"/>
<path d="M244.873 543.201C269.251 543.201 289.013 523.438 289.013 499.061C289.013 474.683 269.251 454.921 244.873 454.921C220.496 454.921 200.734 474.683 200.734 499.061C200.734 523.438 220.496 543.201 244.873 543.201Z" fill="#2AB5B5"/>
<path d="M372.277 358.727C372.277 358.727 320.664 398.372 380.916 465.195L307.729 465.179L268.826 358.727H372.277Z" fill="#13989B"/>
<path d="M357.957 130.671L368.205 104.785L397.665 110.335L389.091 149.388C389.09 149.388 376.744 149.299 357.957 130.671Z" fill="#F2AC9E"/>
<path d="M129.535 426.075V385.104C129.535 377.131 135.998 370.669 143.969 370.669H170.968L129.535 426.075Z" fill="#4F4F4F"/>
<path d="M445.346 57.6974C445.346 57.6974 455.317 115.027 412.112 127.491H406.295C391.654 127.491 369.737 102.563 369.737 86.7776L369.692 58.9122L445.346 57.6974Z" fill="#F9D1B7"/>
<path d="M120.429 472.699H347.629C347.629 472.699 342.035 350.087 232.522 350.087C124.407 350.087 120.429 472.699 120.429 472.699Z" fill="#2AB5B5"/>
<path d="M463.274 217.838C443.16 217.838 424.426 207.618 413.537 190.707L384.078 144.953L384.076 144.954C383.349 143.833 382.498 142.771 381.516 141.788C373.969 134.241 361.734 134.241 354.187 141.788C346.64 149.335 346.64 161.57 354.187 169.117L393.767 219.875C404.976 234.25 422.187 242.654 440.416 242.654H527.267V217.838H463.274Z" fill="#13989B"/>
<path d="M416.675 194.954L387.216 149.2L387.214 149.201C386.488 148.08 385.637 147.018 384.654 146.035C377.108 138.489 364.873 138.489 357.326 146.035C349.779 153.582 349.779 165.817 357.326 173.364L392.397 207.198C392.397 207.66 416.675 195.289 416.675 194.954Z" fill="#37BCBF"/>
<path d="M126.876 472.699H342.035C342.035 472.699 326.404 363.281 232.617 363.281C138.83 363.281 126.876 472.699 126.876 472.699Z" fill="#3AC5CE"/>
<path d="M80.6061 210.754V306.176C80.6061 316.962 89.3506 325.706 100.136 325.706H209.968C220.754 325.706 229.498 316.962 229.498 306.176V210.754C229.498 199.968 220.754 191.224 209.968 191.224H100.136C89.3506 191.224 80.6061 199.968 80.6061 210.754Z" fill="#13989B"/>
<path d="M93.9556 222.724C93.9556 211.938 102.7 203.194 113.485 203.194H221.447C218.493 196.163 211.541 191.224 203.435 191.224H93.6038C82.8175 191.224 74.0741 199.968 74.0741 210.754V306.176C74.0741 316.962 82.8181 325.706 93.6038 325.706H95.4734C94.4962 323.381 93.9556 320.828 93.9556 318.147V222.724Z" fill="#3AC5CE"/>
<path d="M222.966 306.176V210.754C222.966 208.074 222.424 205.52 221.448 203.194H113.486C102.7 203.194 93.9562 211.938 93.9562 222.724V318.147C93.9562 320.828 94.4974 323.381 95.474 325.706H203.436C214.222 325.706 222.966 316.962 222.966 306.176Z" fill="#2AB5B5"/>
<path d="M104.294 325.507C104.294 331.796 109.392 336.893 115.681 336.893H195.385C201.673 336.893 206.771 331.796 206.771 325.507H104.294Z" fill="#4F4F4F"/>
<path d="M124.975 336.75C124.975 339.594 128.272 341.899 132.339 341.899H183.895C187.963 341.899 191.26 339.594 191.26 336.75H124.975Z" fill="#6D6E71"/>
<path d="M129.068 341.448H372.277C377.048 341.448 380.916 345.316 380.916 350.087C380.916 354.859 377.048 358.727 372.277 358.727H129.068C124.297 358.727 120.428 354.86 120.428 350.087C120.429 345.316 124.297 341.448 129.068 341.448Z" fill="#4F4F4F"/>
<path d="M113.4 390.822V400.216C113.4 403.596 116.14 406.336 119.52 406.336H129.535L137.777 389.55C138.875 387.314 137.248 384.702 134.757 384.702H119.521C116.14 384.702 113.4 387.442 113.4 390.822Z" fill="#4AACD3"/>
<path d="M386.531 148.649C378.055 132.892 366.286 129.156 355.967 130.104C355.967 130.104 348.083 131.309 335.065 142.249C274.774 192.92 271.223 278.519 271.223 278.519C277.594 279.073 278.307 278.043 287.149 276.857C299.216 275.239 368.403 269.09 368.302 268.686C358.33 228.94 416.266 203.93 386.531 148.649Z" fill="#3AC5CE"/>
<path d="M384.76 10.249C413.608 10.249 437.426 31.7602 441.066 59.6162H441.481C441.528 58.6812 441.555 57.7417 441.555 56.795C441.555 25.4281 416.127 0.000556946 384.76 0.000556946C353.393 0.000556946 327.965 25.4281 327.965 56.795C327.965 58.5228 328.047 60.2311 328.198 61.9195C330.789 32.9539 355.121 10.249 384.76 10.249Z" fill="#13989B"/>
<path d="M441.066 59.6157C437.426 31.7596 413.608 10.2485 384.76 10.2485C355.121 10.2485 330.789 32.9534 328.198 61.919C330.789 90.884 355.121 113.589 384.76 113.589C385.784 113.589 386.802 113.56 387.812 113.506V77.9738C387.812 67.8345 396.032 59.6151 406.172 59.6151H441.066V59.6157Z" fill="#3AC5CE"/>
<path d="M441.322 61.9195C441.39 61.1562 441.442 60.3873 441.481 59.6162H441.066C441.165 60.379 441.253 61.1468 441.322 61.9195Z" fill="#3AC5CE"/>
<path d="M370.644 34.7797L436.845 0C436.845 0 477.84 29.0376 468.445 66.6164C468.445 66.6164 453.072 79.4274 397.558 66.6164L370.644 34.7797Z" fill="#B6FCFC"/>
<path d="M527.267 217.933C527.267 217.933 574.474 215.419 574.474 242.749H527.267V217.933Z" fill="#FFAB84"/>
<path d="M348.973 133.742L360.201 120.244C360.201 120.244 389.584 141.75 397.665 140.675C397.665 140.675 398.693 153.149 392.399 159.753C392.398 159.754 373.896 156.064 348.973 133.742Z" fill="#13989B"/>
<path d="M450.776 222.385C430.662 222.385 411.928 212.165 401.039 195.254L371.58 149.499L371.578 149.5C370.851 148.38 370 147.317 369.018 146.335C361.471 138.788 349.236 138.788 341.69 146.335C334.143 153.882 334.143 166.117 341.69 173.664L381.27 224.422C392.479 238.797 409.69 247.201 427.918 247.201H514.77V222.385H450.776Z" fill="#13989B"/>
<path d="M400.855 194.884L371.395 149.13L371.394 149.131C370.667 148.011 369.816 146.948 368.834 145.966C361.287 138.419 349.052 138.419 341.505 145.966C333.959 153.513 333.958 165.748 341.505 173.294L381.086 224.052C380.716 224.423 400.855 196.674 400.855 194.884Z" fill="#37BCBF"/>
<path d="M616.636 229.541H547.79V289.071H616.636V229.541Z" fill="#3AC5CE"/>
<path d="M367.609 262.592L480.751 272.563L481.905 434.815H443.546V307.483H352.929L367.609 262.592Z" fill="#2B2B2B"/>
<path d="M582.213 242.202V251.329C582.213 258.299 576.563 263.95 569.592 263.95H547.79V229.542L569.614 229.581C576.576 229.593 582.213 235.24 582.213 242.202Z" fill="#13989B"/>
<path d="M667.1 571C706.537 571 738.508 539.029 738.508 499.591C738.508 460.154 706.537 428.183 667.1 428.183C627.662 428.183 595.691 460.154 595.691 499.591C595.691 539.029 627.662 571 667.1 571Z" fill="#414042"/>
<path d="M437.912 434.815V465.195H509.645V457.873C514.309 429.096 499.322 434.815 486.588 434.815H437.912Z" fill="#13989B"/>
<path d="M422.864 434.314L423.141 465.889L494.598 464.694V457.371C494.598 444.637 499.7 421.117 459.817 442.72L429.234 442.346L422.864 434.314Z" fill="#2AB5B5"/>
<path d="M587.353 289.071H558.038V301.505H587.353V289.071Z" fill="#13989B"/>
<path d="M667.1 543.731C691.477 543.731 711.239 523.969 711.239 499.591C711.239 475.214 691.477 455.452 667.1 455.452C642.722 455.452 622.96 475.214 622.96 499.591C622.96 523.969 642.722 543.731 667.1 543.731Z" fill="#2AB5B5"/>
<path d="M571.252 375.397L660.599 506.988C663.657 511.537 669.727 512.918 674.453 510.14C679.557 507.14 681.114 500.48 677.87 495.527L589.142 363.281L571.252 375.397Z" fill="#AFDFE0"/>
<path d="M362.259 267.907L271.223 278.519C271.223 304.138 294.402 307.484 294.402 307.484H332.848H357.957H423.465L416.125 437.085L468.38 434.5L461.823 275.262L362.259 267.907Z" fill="#3F3F3F"/>
<path d="M514.77 222.385C514.77 222.385 561.977 219.871 561.977 247.201H514.77V222.385Z" fill="#FEC194"/>
<path d="M540.225 261.762C547.681 261.762 553.725 255.718 553.725 248.262C553.725 240.807 547.681 234.763 540.225 234.763C532.77 234.763 526.726 240.807 526.726 248.262C526.726 255.718 532.77 261.762 540.225 261.762Z" fill="#414042"/>
<path d="M549.07 289.735L541.861 386.155L531.152 459.643H346.215L346.931 480.593H566.736C572.684 480.593 577.505 475.772 577.505 469.824V383.718V289.735H549.07Z" fill="#13989B"/>
<path d="M616.636 289.071C624.832 289.071 631.476 275.758 631.476 259.337C631.476 242.915 624.832 229.603 616.636 229.603C608.44 229.603 601.796 242.915 601.796 259.337C601.796 275.758 608.44 289.071 616.636 289.071Z" fill="#BDEBF9"/>
<path d="M159.194 445.635C159.194 449.644 162.443 452.894 166.452 452.894H291.72C295.729 452.894 298.979 449.644 298.979 445.635C298.979 441.627 295.729 438.377 291.72 438.377H166.452C162.443 438.377 159.194 441.627 159.194 445.635Z" fill="#13989B"/>
<path d="M178.297 415.368C178.297 419.376 181.546 422.626 185.555 422.626H277.688C281.697 422.626 284.947 419.377 284.947 415.368C284.947 411.359 281.697 408.109 277.688 408.109H185.555C181.546 408.11 178.297 411.359 178.297 415.368Z" fill="#13989B"/>
<path d="M155.532 472.699V490.118C155.532 495.35 159.774 499.592 165.006 499.592H253.232C260.272 499.592 265.979 493.884 265.979 486.844V472.699H155.532Z" fill="#C8FBFC"/>
<path d="M155.532 481.499H141.869V491.178H155.532V481.499Z" fill="#6D6E71"/>
<path d="M347.629 472.699H265.98V486.145H347.629V472.699Z" fill="#4F4F4F"/>
<path d="M564.3 486.146V295.288H578.204V475.518C578.204 481.388 573.446 486.146 567.577 486.146H564.3Z" fill="#3AC5CE"/>
<path d="M644.114 406.364C606.471 418.135 583.551 454.881 587.874 492.669L738.508 443.454C720.092 411.126 681.077 394.805 644.114 406.364Z" fill="#3AC5CE"/>
<path d="M575.711 295.288C575.711 295.288 574.553 399.88 577.876 440.592L645.815 392.333C645.815 392.333 631.283 371.424 592.55 295.288H575.711Z" fill="#13989B"/>
<path d="M580.064 289.182C580.064 289.182 599.628 376.984 637.979 382.337L638.933 381.298L589.879 288.813L580.064 289.182Z" fill="#2AB5B5"/>
<path d="M495.794 486.746H409.882V498.702H495.794V486.746Z" fill="#666666"/>
<path d="M374.758 83.4623C388.317 83.4623 399.308 72.4706 399.308 58.9116C399.308 45.3527 388.317 34.361 374.758 34.361C361.199 34.361 350.207 45.3527 350.207 58.9116C350.207 72.4706 361.199 83.4623 374.758 83.4623Z" fill="#13989B"/>
<path d="M416.848 16.369L436.015 5.17271C436.015 5.17271 465.05 24.9091 463.152 55.4622L455.846 57.2177C455.846 57.2177 454.423 34.3615 416.848 16.369Z" fill="white"/>
<path d="M424.318 436.737C424.318 436.737 426.153 448.158 443.083 448.439C463.925 448.786 460.969 434.815 460.969 434.815L424.318 436.737Z" fill="#FFAB84"/>
<path d="M358.778 331.2H372.277V330.494C372.277 317.786 361.975 307.484 349.267 307.484H273.683C272.016 307.484 270.393 307.665 268.826 308.002C268.88 308.234 274.38 331.2 358.778 331.2Z" fill="#13989B"/>
<path d="M358.777 331.2C274.38 331.2 268.88 308.234 268.826 308.001C258.451 310.231 250.673 319.452 250.673 330.493V341.448L372.277 342.425V331.2H358.777V331.2Z" fill="#414042"/>
<path d="M3.31921 513.579H162.494C164.327 513.579 165.813 514.957 165.813 516.658C165.813 518.358 164.326 519.736 162.494 519.736H3.31921C1.48622 519.736 0 518.358 0 516.658C0 514.957 1.48622 513.579 3.31921 513.579Z" fill="#BCBEC0"/>
<path d="M4.15008 529.366H163.324C165.157 529.366 166.644 530.744 166.644 532.445C166.644 534.145 165.157 535.523 163.324 535.523H4.15008C2.31709 535.523 0.830872 534.145 0.830872 532.445C0.830872 530.744 2.31709 529.366 4.15008 529.366Z" fill="#BCBEC0"/>
<path d="M167.582 479.423H252.792C255.202 479.423 257.155 481.376 257.155 483.786C257.155 486.196 255.202 488.149 252.792 488.149H167.582C165.172 488.149 163.218 486.196 163.218 483.786C163.218 481.376 165.172 479.423 167.582 479.423Z" fill="white"/>
<path d="M564.3 472.699H347.629V486.145H564.3V472.699Z" fill="#3AC5CE"/>
<path d="M412.708 81.9146C414.381 81.9146 415.737 80.5585 415.737 78.8856C415.737 77.2128 414.381 75.8567 412.708 75.8567C411.035 75.8567 409.679 77.2128 409.679 78.8856C409.679 80.5585 411.035 81.9146 412.708 81.9146Z" fill="black"/>
<path d="M414.011 79.4407C414.731 79.4407 415.314 78.8574 415.314 78.1378C415.314 77.4182 414.731 76.8349 414.011 76.8349C413.291 76.8349 412.708 77.4182 412.708 78.1378C412.708 78.8574 413.291 79.4407 414.011 79.4407Z" fill="white"/>
<path d="M435.288 81.9151C436.961 81.9151 438.317 80.5588 438.317 78.8856C438.317 77.2125 436.961 75.8561 435.288 75.8561C433.615 75.8561 432.258 77.2125 432.258 78.8856C432.258 80.5588 433.615 81.9151 435.288 81.9151Z" fill="black"/>
<path d="M436.591 79.4407C437.31 79.4407 437.894 78.8574 437.894 78.1378C437.894 77.4182 437.31 76.8349 436.591 76.8349C435.871 76.8349 435.288 77.4182 435.288 78.1378C435.288 78.8574 435.871 79.4407 436.591 79.4407Z" fill="white"/>
<path d="M374.445 68.7751C379.034 68.7751 382.754 65.0552 382.754 60.4665C382.754 55.8778 379.034 52.158 374.445 52.158C369.857 52.158 366.137 55.8778 366.137 60.4665C366.137 65.0552 369.857 68.7751 374.445 68.7751Z" fill="#92F7F7"/>
<path d="M425.911 122.445L394.336 115.244L405.692 90.5937L443.36 93.9174L440.036 108.874L425.911 122.445Z" fill="#F1F2F2"/>
<path d="M387.827 80.0688L408.6 92.5325" stroke="#F1F2F2" stroke-width="4" stroke-miterlimit="10"/>
<path d="M387.966 101.257L408.739 113.721" stroke="#F1F2F2" stroke-width="4" stroke-miterlimit="10"/>
<path d="M126.968 191.134H109.796V325.373H126.968V191.134Z" fill="#3F3F3F"/>
<path d="M128.629 230.095H108.134V260.008H128.629V230.095Z" fill="#4AACD3" stroke="#231F20" stroke-width="3" stroke-miterlimit="10"/>
<path d="M198.426 191.226H181.254V325.465H198.426V191.226Z" fill="#3F3F3F"/>
<path d="M200.088 230.187H179.592V260.1H200.088V230.187Z" fill="#4AACD3" stroke="#231F20" stroke-width="3" stroke-miterlimit="10"/>
<path d="M723.1 332.389L615.912 286.966V229.91L721.715 166.761L723.1 332.389Z" fill="url(#paint0_linear_32_145)"/>
<defs>
<linearGradient id="paint0_linear_32_145" x1="615.913" y1="249.575" x2="723.1" y2="249.575" gradientUnits="userSpaceOnUse">
<stop stop-color="#FAFF97"/>
<stop offset="0.0446" stop-color="#F9FF9E"/>
<stop offset="0.1974" stop-color="#F8FFB1"/>
<stop offset="0.3547" stop-color="#F7FFBC"/>
<stop offset="0.5223" stop-color="#F7FFC0"/>
<stop offset="1" stop-color="#FFFFF4"/>
</linearGradient>
</defs>
</svg>
