<svg width="100" height="100" viewBox="0 0 100 100" fill="none" xmlns="http://www.w3.org/2000/svg">
<path d="M94.4151 0.212158H56.5563C53.9566 0.212158 50.3159 1.7202 48.4797 3.55635L1.54112 50.495C0.656055 51.3842 0.15918 52.5877 0.15918 53.8423C0.15918 55.0969 0.656055 56.3005 1.54112 57.1897L42.1699 97.8185C43.0591 98.7036 44.2627 99.2004 45.5173 99.2004C46.7719 99.2004 47.9754 98.7036 48.8646 97.8185L95.8033 50.8799C97.6457 49.0374 99.1475 45.403 99.1475 42.8033V4.94451C99.1425 3.69095 98.6423 2.49015 97.7559 1.60374C96.8695 0.717329 95.6687 0.217143 94.4151 0.212158V0.212158ZM70.7533 38.071C69.51 38.0706 68.2789 37.8253 67.1304 37.3491C65.9819 36.8729 64.9384 36.1751 64.0595 35.2957C63.1806 34.4162 62.4836 33.3722 62.0081 32.2234C61.5327 31.0745 61.2882 29.8433 61.2886 28.6C61.2891 27.3566 61.5344 26.1255 62.0105 24.977C62.4867 23.8285 63.1845 22.785 64.0639 21.9061C64.9434 21.0272 65.9874 20.3302 67.1362 19.8547C68.2851 19.3793 69.5163 19.1348 70.7597 19.1353C73.2707 19.1361 75.6785 20.1344 77.4535 21.9106C79.2285 23.6867 80.2252 26.0952 80.2244 28.6063C80.2235 31.1173 79.2252 33.5252 77.4491 35.3001C75.6729 37.0751 73.2644 38.0718 70.7533 38.071Z" fill="#083C3E"/>
</svg>
