<svg width="106" height="105" viewBox="0 0 106 105" fill="none" xmlns="http://www.w3.org/2000/svg">
<path d="M33.0652 3.40553C33.0652 2.53432 33.4113 1.69878 34.0273 1.08274C34.6433 0.466694 35.4789 0.120605 36.3501 0.120605H69.1994C70.0706 0.120605 70.9061 0.466694 71.5222 1.08274C72.1382 1.69878 72.4843 2.53432 72.4843 3.40553V19.574H88.909C89.7802 19.574 90.6157 19.92 91.2318 20.5361C91.8478 21.1521 92.1939 21.9877 92.1939 22.8589V49.5522L102.929 52.5415C103.393 52.6698 103.822 52.8984 104.188 53.211C104.553 53.5236 104.846 53.9126 105.044 54.3506C105.243 54.7887 105.343 55.2649 105.337 55.7459C105.332 56.2268 105.221 56.7006 105.012 57.1338L93.0217 82.0205C91.8894 80.7414 90.4441 79.7785 88.8275 79.2265C87.2109 78.6744 85.4786 78.552 83.8004 78.8713C82.1223 79.1907 80.556 79.9407 79.2551 81.048C77.9543 82.1552 76.9636 83.5816 76.3802 85.1871C75.7852 86.5252 75.0213 87.7815 74.1071 88.9254C72.4055 91.0212 70.8353 91.8424 69.2454 91.8424C67.6686 91.8424 66.0787 91.0146 64.3443 88.886C63.3823 87.6842 62.5827 86.361 61.966 84.9506C61.2443 83.0769 59.9675 81.4683 58.3064 80.3402C56.6454 79.2121 54.6793 78.6183 52.6715 78.6383C50.6637 78.6583 48.7099 79.2911 47.0716 80.4521C45.4334 81.6131 44.1889 83.2468 43.5047 85.1346C42.9033 86.4817 42.1328 87.7467 41.2118 88.8991C39.5036 91.0212 37.9269 91.8424 36.3501 91.8424C34.7668 91.8424 33.1966 91.0212 31.495 88.9254C30.5467 87.7382 29.7602 86.4303 29.1561 85.036C28.5411 83.4292 27.5162 82.0114 26.1832 80.9235C24.8503 79.8357 23.2558 79.1158 21.5583 78.8354C19.8608 78.5551 18.1194 78.724 16.5075 79.3254C14.8955 79.9269 13.4691 80.9398 12.3701 82.2636L0.531226 57.101C0.32837 56.6688 0.222144 56.1977 0.219945 55.7203C0.217745 55.2429 0.319625 54.7708 0.51849 54.3368C0.717355 53.9028 1.00843 53.5173 1.37144 53.2073C1.73445 52.8972 2.16067 52.67 2.62044 52.5415L13.3556 49.5522V22.8589C13.3556 21.9877 13.7017 21.1521 14.3177 20.5361C14.9338 19.92 15.7693 19.574 16.6405 19.574H33.0652V3.4121V3.40553ZM65.9145 6.69046H39.635V19.574H65.9145V6.69703V6.69046ZM85.624 47.7258V26.1438H19.9254V47.7192L47.4531 40.0391C50.9152 39.0741 54.5752 39.0741 58.0372 40.0391L85.624 47.7258Z" fill="#083C3E"/>
<path d="M61.9672 84.9502L61.9804 84.9834V85.0033L61.9672 84.9502Z" fill="#083C3E"/>
<path d="M88.8314 87.8345L88.8117 87.7688C88.6428 87.0891 88.261 86.4812 87.7222 86.0338C87.1833 85.5865 86.5156 85.323 85.8165 85.2819C85.1174 85.2408 84.4234 85.4243 83.8359 85.8055C83.2483 86.1867 82.798 86.7456 82.5506 87.4008L82.5178 87.4731C82.4915 87.5388 82.4521 87.6571 82.3864 87.8016C81.5495 89.6848 80.4718 91.4515 79.1803 93.0575C76.8283 95.9482 73.5631 98.4119 69.2007 98.4119C64.8383 98.4119 61.5665 95.9417 59.2014 93.0509C57.8306 91.3516 56.6989 89.4727 55.8376 87.4665L55.8047 87.3877C55.5657 86.7654 55.143 86.2306 54.5928 85.8543C54.0425 85.478 53.3909 85.278 52.7243 85.2809C52.0577 85.2837 51.4077 85.4893 50.8607 85.8703C50.3138 86.2513 49.8956 86.7897 49.6619 87.414L49.6291 87.4797C49.6028 87.5454 49.5634 87.6636 49.4977 87.8082C48.6657 89.6891 47.5923 91.4537 46.3047 93.0575C43.9659 95.9482 40.7138 98.4119 36.3514 98.4119C31.989 98.4119 28.7304 95.9482 26.3783 93.0575C25.011 91.3582 23.8836 89.4792 23.0277 87.4731L23.0014 87.4074V87.3943C22.7546 86.739 22.3049 86.1797 21.7178 85.798C21.1308 85.4163 20.4371 85.2322 19.738 85.2725C19.0389 85.3129 18.3711 85.5756 17.8318 86.0223C17.2925 86.4689 16.9101 87.0763 16.7404 87.7556L16.7272 87.8082L16.6352 88.117C16.0354 89.9255 15.1504 91.6267 14.0139 93.156C11.9969 95.8431 8.78426 98.4119 3.50209 98.4119C2.63088 98.4119 1.79534 98.758 1.1793 99.3741C0.563254 99.9901 0.217163 100.826 0.217163 101.697C0.217163 102.568 0.563254 103.404 1.1793 104.02C1.79534 104.636 2.63088 104.982 3.50209 104.982C11.3596 104.982 16.3593 100.981 19.2698 97.0979C19.5982 96.6512 19.9136 96.211 20.1895 95.7708C20.5246 96.2439 20.8859 96.7169 21.2801 97.1965C24.2628 100.876 29.2165 104.982 36.3514 104.982C43.4863 104.982 48.4268 100.876 51.4095 97.1965C51.9022 96.5855 52.349 95.9811 52.7498 95.3898C53.1637 95.9811 53.617 96.5921 54.1097 97.2031C57.1121 100.882 62.0658 104.982 69.2007 104.982C76.3355 104.982 81.2892 100.876 84.2719 97.1965C84.653 96.7366 85.0078 96.2636 85.3363 95.8037C85.6188 96.2504 85.9275 96.6972 86.256 97.1439C89.173 101.06 94.1859 105.074 102.089 104.982C102.521 104.977 102.947 104.887 103.343 104.717C103.74 104.547 104.099 104.3 104.401 103.992C104.702 103.683 104.94 103.318 105.1 102.918C105.26 102.517 105.34 102.089 105.335 101.657C105.33 101.226 105.24 100.8 105.07 100.403C104.9 100.007 104.654 99.6476 104.345 99.3462C104.036 99.0448 103.671 98.8072 103.271 98.6469C102.87 98.4866 102.442 98.4067 102.011 98.4119C96.735 98.4776 93.5354 95.9154 91.5316 93.2217C90.3954 91.6798 89.5147 89.965 88.9234 88.1432L88.8314 87.8279V87.8345Z" fill="#083C3E"/>
</svg>
