<svg width="115" height="100" viewBox="0 0 115 100" fill="none" xmlns="http://www.w3.org/2000/svg">
<path d="M98.4597 22.8868C97.4584 21.1639 96.0206 19.7313 94.2893 18.7315C92.5579 17.7316 90.5933 17.1992 88.5907 17.1872H74.6478V5.78797C74.6478 4.27635 74.0432 2.82663 72.9672 1.75775C71.8911 0.688871 70.4317 0.0883789 68.91 0.0883789H11.5318C8.48826 0.0883789 5.56939 1.28936 3.41729 3.42712C1.26519 5.56488 0.0561523 8.46431 0.0561523 11.4876V68.4835C0.0582165 70.4825 0.589441 72.4458 1.59653 74.1765C2.60363 75.9071 4.05118 77.3443 5.79397 78.3438C5.58853 83.6345 7.50732 88.7895 11.1282 92.6749C14.7491 96.5603 19.7755 98.8577 25.1017 99.0618C30.4279 99.2659 35.6175 97.3599 39.529 93.7631C43.4404 90.1663 45.7532 85.1734 45.9587 79.8827H63.7459C64.3804 84.6515 66.7379 89.0288 70.3796 92.1996C74.0212 95.3704 78.6988 97.1185 83.5414 97.1185C88.384 97.1185 93.0615 95.3704 96.7032 92.1996C100.345 89.0288 102.702 84.6515 103.337 79.8827C106.38 79.8827 109.299 78.6817 111.451 76.5439C113.603 74.4062 114.812 71.5067 114.812 68.4835V51.3847C114.803 50.3449 114.527 49.3247 114.009 48.4209L98.4597 22.8868ZM74.6478 28.5863H88.5907L98.9187 45.6851H74.6478V28.5863ZM25.8763 85.5823C24.1741 85.5823 22.5101 85.0809 21.0947 84.1414C19.6793 83.202 18.5762 81.8668 17.9247 80.3046C17.2733 78.7424 17.1029 77.0234 17.435 75.365C17.7671 73.7066 18.5868 72.1832 19.7905 70.9876C20.9941 69.7919 22.5277 68.9776 24.1972 68.6478C25.8668 68.3179 27.5973 68.4872 29.17 69.1343C30.7426 69.7814 32.0868 70.8772 33.0326 72.2831C33.9783 73.689 34.4831 75.342 34.4831 77.0329C34.4831 79.3003 33.5763 81.4749 31.9622 83.0782C30.3481 84.6815 28.159 85.5823 25.8763 85.5823ZM83.2545 85.5823C81.5522 85.5823 79.8882 85.0809 78.4729 84.1414C77.0575 83.202 75.9543 81.8668 75.3029 80.3046C74.6515 78.7424 74.481 77.0234 74.8131 75.365C75.1452 73.7066 75.9649 72.1832 77.1686 70.9876C78.3723 69.7919 79.9059 68.9776 81.5754 68.6478C83.2449 68.3179 84.9755 68.4872 86.5481 69.1343C88.1208 69.7814 89.465 70.8772 90.4107 72.2831C91.3564 73.689 91.8612 75.342 91.8612 77.0329C91.8612 79.3003 90.9544 81.4749 89.3404 83.0782C87.7263 84.6815 85.5371 85.5823 83.2545 85.5823Z" fill="#083C3E"/>
</svg>
